<svg xmlns="http://www.w3.org/2000/svg" viewBox="0 0 382.23 83.65">
  <defs>
    <style>
      .cls-1 {
        fill:   white;
      }
    </style>
  </defs>
  <g id="Capa_2" data-name="Capa 2">
    <g id="Capa_1-2" data-name="Capa 1">
      <polygon class="cls-1" points="42.09 57.4 9.77 57.4 9.77 0.28 0 0.28 0 65.41 42.09 65.41 42.09 57.4" />
      <path class="cls-1"
        d="M71.05,65.41h47.66L108.37,40.32h10.34V32.47H105.14L91.76,0H89.17L74.75,32.47H60.12v7.85H71.26L60.12,65.41Zm19-48.5,5.56,15.56H83.93Zm8.37,23.41,1.79,5,4.33,11.28h-30l4.42-11.28,2-5Z" />
      <path class="cls-1"
        d="M326.37,65.41H374l-9.69-23.53H374V34H361.09l-14-34h-2.59L329.37,34H315.43v7.85h10.45L315.43,65.41Zm29.1-20.09L359.8,56.6h-30l4.41-11.28,1.34-3.44h18.67ZM345.31,16.91,351.43,34h-12.8Z" />
      <path class="cls-1"
        d="M270.41,41.16q7.08.5,10.35.49L295.59,65.5h11.12l-16.42-26a17.27,17.27,0,0,0,9.86-6.71,19.38,19.38,0,0,0,4.15-12.13Q304.3.09,278.52.1q-3.22,0-10.28.36t-7.59.37V65.5h9.76Zm0-31.54q4.3-.49,5.76-.49,9.29,0,13.58,2.64t4.3,8.64q0,7.28-4,10.11t-12.79,2.83a49.05,49.05,0,0,1-6.84-.49Z" />
      <rect class="cls-1" x="129.94" y="34.03" width="9.77" height="31.37" />
      <rect class="cls-1" y="73.89" width="163.22" height="9.77" />
      <path class="cls-1"
        d="M377.08,73.89H204.69L183.06,39.36a17.22,17.22,0,0,0,9.86-6.72,19.36,19.36,0,0,0,4.15-12.13Q197.07,0,171.29,0c-2.14,0-5.57.12-10.27.37s-7.24.36-7.6.36V65.41h9.77V41.06q7.08.49,10.35.49l26,42.1H382.23ZM170,33.25a48.91,48.91,0,0,1-6.83-.49V9.52C166.05,9.2,168,9,169,9q9.27,0,13.57,2.64t4.3,8.64q0,7.28-4,10.11T170,33.25Z" />
      <polygon class="cls-1" points="137.62 25.06 139.1 0.5 128.3 6.09 131.8 25.55 137.62 25.06" />
      <polygon class="cls-1" points="47.81 23.96 48.89 4.21 37.48 0 41.98 24.19 47.81 23.96" />
      <polygon class="cls-1"
        points="251.39 56.62 218.97 56.62 218.97 40.32 239.51 40.32 239.51 32.47 218.97 32.47 218.97 9.03 230.3 9.03 230.3 0 209.21 0 209.21 65.41 251.39 65.41 251.39 56.62" />
    </g>
  </g>
</svg>